<?xml version="1.0" encoding="UTF-8"?>
<svg version="1.1" xmlns="http://www.w3.org/2000/svg" width="512" height="512">
<path d="M0 0 C8.54399189 7.97439243 14.56988904 16.26995579 19.8125 26.625 C20.27011719 27.49511719 20.72773438 28.36523438 21.19921875 29.26171875 C26.08682068 40.18593779 25.06393568 54.34902107 21.8125 65.625 C22.72 65.769375 23.6275 65.91375 24.5625 66.0625 C27.03047731 66.48964992 29.39316016 66.9991273 31.8125 67.625 C32.23660156 66.7071875 32.66070312 65.789375 33.09765625 64.84375 C41.44357334 47.18123628 53.62894093 38.57011761 71.6328125 31.71875 C77.66272924 29.64457717 83.88074911 28.02189595 90.03515625 30.53125 C95.23309415 33.56257079 98.73271587 36.98848562 100.4921875 42.9140625 C101.70164752 48.26550889 102.8959607 54.17551448 101.8125 59.625 C99.4375 62.6875 99.4375 62.6875 96.8125 64.625 C96.1525 64.625 95.4925 64.625 94.8125 64.625 C94.56307533 67.04111371 94.33742499 69.45559121 94.125 71.875 C94.05216797 72.55691406 93.97933594 73.23882812 93.90429688 73.94140625 C93.53255376 78.4460581 94.04832736 80.18577235 96.8125 83.625 C97.34774158 87.34667979 97.09927228 89.11834526 95.23828125 92.40625 C94.54089844 93.3034375 93.84351563 94.200625 93.125 95.125 C92.39925781 96.06988281 91.67351562 97.01476562 90.92578125 97.98828125 C88.59020794 100.90235146 86.25550819 103.80027178 83.8125 106.625 C85.4625 108.605 87.1125 110.585 88.8125 112.625 C92.13190087 111.17369245 94.34025203 109.31870053 96.9375 106.8125 C108.61828694 96.29407522 123.97684795 93.51825562 139.3125 93.3125 C140.39337891 93.26899414 140.39337891 93.26899414 141.49609375 93.22460938 C147.06998078 93.15909352 150.21026679 94.47215266 154.8125 97.625 C158.52245477 101.53549287 160.71827902 105.19409881 160.9296875 110.6484375 C159.65174459 128.33351837 154.99459797 145.92671732 141.65625 158.359375 C136.68831324 162.3173466 131.34848391 165.51860151 125.8125 168.625 C127.1720759 172.8455965 128.75293847 176.6931098 130.8125 180.625 C131.76125 179.75875 132.71 178.8925 133.6875 178 C141.31045879 171.52507717 149.01193054 167.64020585 158.8125 165.625 C159.70453125 165.44066406 160.5965625 165.25632813 161.515625 165.06640625 C165.9572581 164.47173262 170.33575492 164.40133379 174.8125 164.375 C176.12734375 164.3440625 176.12734375 164.3440625 177.46875 164.3125 C184.26977224 164.27152999 188.50775743 165.42501846 193.5625 170.25 C197.29519019 175.23095996 198.10711016 179.93706195 197.43359375 186.08203125 C194.62880449 201.64460481 189.19677672 216.24898437 176.8125 226.625 C174.21661713 228.4270628 171.56486504 230.07366698 168.8125 231.625 C170.24244324 232.40976278 171.68211773 233.17678913 173.125 233.9375 C173.92550781 234.36675781 174.72601563 234.79601562 175.55078125 235.23828125 C185.62212479 239.52010994 195.11574724 240.06297667 205.93554688 240.15234375 C212.4509186 240.28717189 217.46243757 240.49774457 222.45703125 245.16015625 C227.19761313 251.35937871 227.7827339 255.84391626 226.8125 263.625 C221.68093322 276.48434126 207.8165987 284.21342253 195.8125 289.625 C190.4680957 291.35373966 186.37265838 292.26305096 180.8125 291.625 C180.21824219 290.79355469 179.62398438 289.96210938 179.01171875 289.10546875 C176.99052195 286.28179813 176.99052195 286.28179813 173.5 286.1796875 C172.283125 286.28539062 171.06625 286.39109375 169.8125 286.5 C168.595625 286.57992188 167.37875 286.65984375 166.125 286.7421875 C162.63685008 287.29996332 162.63685008 287.29996332 160.9375 290.1953125 C158.8125 292.625 158.8125 292.625 156.89770508 293.02294922 C151.26539651 293.12181518 145.927712 292.03165835 140.5 290.625 C139.64696289 290.40859863 138.79392578 290.19219727 137.91503906 289.96923828 C128.9789425 287.58726011 120.52557778 284.1473462 112.02539062 280.54199219 C108.6536976 279.14480783 105.23789876 277.88410776 101.8125 276.625 C101.58691406 277.16253906 101.36132812 277.70007813 101.12890625 278.25390625 C99.8125 280.625 99.8125 280.625 97.46484375 283.33984375 C89.79446343 292.24181022 88.948168 299.20902601 88.921875 310.7421875 C88.87465164 319.58982047 85.90131244 326.51171518 79.8125 332.90234375 C71.96460531 339.66195616 64.53745253 340.99684535 54.42578125 340.90234375 C46.17417203 340.26897699 39.34288904 336.76203886 33.8125 330.625 C28.55905752 323.76478655 26.6451187 317.2109516 26.84008789 308.60717773 C27.11070729 300.60464321 27.11070729 300.60464321 23.375 293.90234375 C20.57839705 292.1872396 17.83969289 290.87365947 14.8125 289.625 C14.1525 288.965 13.4925 288.305 12.8125 287.625 C10.92462498 287.31226117 10.92462498 287.31226117 8.73764038 287.3465271 C7.88506149 287.33536362 7.0324826 287.32420013 6.15406799 287.31269836 C5.21683395 287.31053818 4.27959991 287.30837799 3.31396484 287.30615234 C2.32856216 287.29610672 1.34315948 287.2860611 0.32789612 287.27571106 C-2.94025063 287.24473645 -6.20831495 287.22780431 -9.4765625 287.2109375 C-11.7381563 287.19223734 -13.99974303 287.17266481 -16.26132202 287.1522522 C-22.22236987 287.10080335 -28.18344038 287.06124599 -34.14459229 287.02410889 C-40.22405662 286.98414902 -46.30342569 286.93302021 -52.3828125 286.8828125 C-64.31764154 286.78590228 -76.25252421 286.70154597 -88.1875 286.625 C-88.16655273 287.51695068 -88.14560547 288.40890137 -88.12402344 289.32788086 C-88.05533914 292.67710968 -88.00545673 296.02557668 -87.96777344 299.37524414 C-87.94781249 300.81742252 -87.92063337 302.2595216 -87.88574219 303.70141602 C-87.6052075 315.60351272 -89.04605293 323.94864526 -97.39453125 332.90234375 C-104.85492269 340.07017082 -112.43047354 341.08842532 -122.41796875 340.94140625 C-130.27145358 340.28220182 -136.71211873 337.34926223 -142.1875 331.625 C-149.06146168 322.05763506 -150.47196236 313.57140519 -150.4609375 302.0390625 C-150.48122494 299.78645335 -150.5020757 297.53384922 -150.5234375 295.28125 C-150.54600943 291.76395405 -150.56250523 288.24685722 -150.56835938 284.72949219 C-150.57793093 281.31149166 -150.61175834 277.89436513 -150.6484375 274.4765625 C-150.64086929 272.91828232 -150.64086929 272.91828232 -150.63314819 271.32852173 C-150.76251306 261.62871059 -153.44597826 253.94969391 -159.8125 246.625 C-160.58851563 245.7175 -161.36453125 244.81 -162.1640625 243.875 C-163.46852159 242.42448179 -164.80807683 241.00442317 -166.1875 239.625 C-166.07374847 238.20310591 -165.898629 236.78572562 -165.6875 235.375 C-165.47870372 232.94708945 -165.47870372 232.94708945 -166.1875 230.625 C-169.22305885 227.99026318 -172.54237246 226.28483486 -176.1875 224.625 C-176.77789062 225.11097656 -177.36828125 225.59695313 -177.9765625 226.09765625 C-181.31717251 228.40539214 -184.31629173 228.20199184 -188.1875 227.625 C-190.23853018 226.98346294 -192.28210482 226.31789719 -194.3203125 225.63671875 C-203.10235618 223.07333917 -211.59483321 223.02215472 -220.6875 223 C-263.04701036 222.70756886 -263.04701036 222.70756886 -278.03125 208.9296875 C-283.87978769 202.53643307 -285.75551102 196.18277358 -285.6875 187.6875 C-285.68250488 186.86064697 -285.67750977 186.03379395 -285.67236328 185.18188477 C-285.19446487 167.97589394 -277.46301784 153.47320551 -265.1875 141.625 C-252.36435551 130.50369259 -237.06501167 125.04285923 -220.171875 125.37109375 C-204.72325535 126.68543966 -194.17364011 135.03874438 -183.1875 145.25 C-176.38269262 151.41485684 -169.66350503 156.625 -160.1875 156.625 C-159.5275 155.965 -158.8675 155.305 -158.1875 154.625 C-159.198125 153.84125 -160.20875 153.0575 -161.25 152.25 C-173.21431973 141.93259068 -178.1722599 126.77149886 -179.36035156 111.38671875 C-179.47572786 109.11021833 -179.53570059 106.84169058 -179.5625 104.5625 C-179.57635742 103.8605249 -179.59021484 103.1585498 -179.60449219 102.43530273 C-179.54810691 96.25740568 -177.79684124 92.35209792 -173.625 87.875 C-167.57263237 83.3613699 -161.09615669 83.31089075 -153.86987305 84.26269531 C-135.0351027 87.22013888 -121.50495043 93.82392196 -109.1875 108.625 C-108.1975 106.645 -108.1975 106.645 -107.1875 104.625 C-107.68378906 104.13773437 -108.18007812 103.65046875 -108.69140625 103.1484375 C-121.51532654 89.76483947 -124.73837245 75.24269741 -124.3671875 57.26953125 C-124.08373374 48.64168877 -123.72505519 40.97132016 -117.8828125 34.18359375 C-113.63064204 30.27434027 -108.68843836 28.93906888 -102.96484375 29.14453125 C-86.95560967 31.9140612 -69.87825776 41.11481984 -60.26953125 54.24609375 C-57.43692146 58.84121629 -55.15280618 63.60255088 -53.1875 68.625 C-52.57261719 68.4084375 -51.95773438 68.191875 -51.32421875 67.96875 C-50.51597656 67.6903125 -49.70773438 67.411875 -48.875 67.125 C-48.07449219 66.8465625 -47.27398437 66.568125 -46.44921875 66.28125 C-44.1875 65.625 -44.1875 65.625 -41.1875 65.625 C-41.4040625 64.40876953 -41.4040625 64.40876953 -41.625 63.16796875 C-44.7464382 44.54772283 -42.25769965 29.35035473 -31.09375 13.6875 C-29.17569786 11.28277791 -27.2030384 8.94806385 -25.1875 6.625 C-24.50042969 5.74585937 -23.81335938 4.86671875 -23.10546875 3.9609375 C-17.54642368 -2.80954916 -7.72072615 -3.33050932 0 0 Z " fill="#97DA7B" transform="translate(285.1875,86.375)"/>
<path d="M0 0 C8.54399189 7.97439243 14.56988904 16.26995579 19.8125 26.625 C20.27011719 27.49511719 20.72773438 28.36523438 21.19921875 29.26171875 C26.08682068 40.18593779 25.06393568 54.34902107 21.8125 65.625 C22.72 65.769375 23.6275 65.91375 24.5625 66.0625 C27.03047731 66.48964992 29.39316016 66.9991273 31.8125 67.625 C32.23660156 66.7071875 32.66070312 65.789375 33.09765625 64.84375 C41.44357334 47.18123628 53.62894093 38.57011761 71.6328125 31.71875 C77.66272924 29.64457717 83.88074911 28.02189595 90.03515625 30.53125 C95.23309415 33.56257079 98.73271587 36.98848562 100.4921875 42.9140625 C101.70164752 48.26550889 102.8959607 54.17551448 101.8125 59.625 C99.4375 62.6875 99.4375 62.6875 96.8125 64.625 C96.1525 64.625 95.4925 64.625 94.8125 64.625 C94.56307533 67.04111371 94.33742499 69.45559121 94.125 71.875 C94.05216797 72.55691406 93.97933594 73.23882812 93.90429688 73.94140625 C93.53255376 78.4460581 94.04832736 80.18577235 96.8125 83.625 C97.34774158 87.34667979 97.09927228 89.11834526 95.23828125 92.40625 C94.54089844 93.3034375 93.84351563 94.200625 93.125 95.125 C92.39925781 96.06988281 91.67351562 97.01476562 90.92578125 97.98828125 C88.59020794 100.90235146 86.25550819 103.80027178 83.8125 106.625 C85.4625 108.605 87.1125 110.585 88.8125 112.625 C92.13190087 111.17369245 94.34025203 109.31870053 96.9375 106.8125 C108.61828694 96.29407522 123.97684795 93.51825562 139.3125 93.3125 C140.39337891 93.26899414 140.39337891 93.26899414 141.49609375 93.22460938 C147.06998078 93.15909352 150.21026679 94.47215266 154.8125 97.625 C158.52245477 101.53549287 160.71827902 105.19409881 160.9296875 110.6484375 C159.65174459 128.33351837 154.99459797 145.92671732 141.65625 158.359375 C136.68831324 162.3173466 131.34848391 165.51860151 125.8125 168.625 C127.1720759 172.8455965 128.75293847 176.6931098 130.8125 180.625 C131.76125 179.75875 132.71 178.8925 133.6875 178 C141.31045879 171.52507717 149.01193054 167.64020585 158.8125 165.625 C159.70453125 165.44066406 160.5965625 165.25632813 161.515625 165.06640625 C165.9572581 164.47173262 170.33575492 164.40133379 174.8125 164.375 C176.12734375 164.3440625 176.12734375 164.3440625 177.46875 164.3125 C184.26977224 164.27152999 188.50775743 165.42501846 193.5625 170.25 C197.29519019 175.23095996 198.10711016 179.93706195 197.43359375 186.08203125 C194.62880449 201.64460481 189.19677672 216.24898437 176.8125 226.625 C174.21661713 228.4270628 171.56486504 230.07366698 168.8125 231.625 C170.24244324 232.40976278 171.68211773 233.17678913 173.125 233.9375 C173.92550781 234.36675781 174.72601563 234.79601562 175.55078125 235.23828125 C185.62212479 239.52010994 195.11574724 240.06297667 205.93554688 240.15234375 C212.4509186 240.28717189 217.46243757 240.49774457 222.45703125 245.16015625 C227.19761313 251.35937871 227.7827339 255.84391626 226.8125 263.625 C221.68093322 276.48434126 207.8165987 284.21342253 195.8125 289.625 C190.4680957 291.35373966 186.37265838 292.26305096 180.8125 291.625 C178.1875 289.625 178.1875 289.625 176.8125 286.625 C176.64626218 283.51573712 177.18367241 281.28523053 178.8125 278.625 C180.78873116 277.24861312 182.71114022 276.5080548 184.97265625 275.6796875 C188.42654766 274.39694929 191.70315549 272.82152365 195 271.1875 C196.14855469 270.63191406 197.29710937 270.07632812 198.48046875 269.50390625 C204.44438851 266.14089874 208.32087206 262.39961544 211.8125 256.625 C211.22984375 256.64594727 210.6471875 256.66689453 210.046875 256.68847656 C187.10534856 257.40089032 167.07206312 253.58922753 149.328125 238.0234375 C132.58239696 222.05778996 122.89374695 202.17183635 112.87109375 181.6171875 C100.30121421 155.87976148 85.71904815 132.32023865 65.8125 111.625 C65.17441406 110.92375 64.53632813 110.2225 63.87890625 109.5 C45.05658665 89.4228591 17.69135729 77.29649022 -9.63671875 76.29248047 C-41.09806756 75.71159394 -68.35612623 93.68755387 -90.67578125 114.32421875 C-92.05148954 115.58439322 -93.43509595 116.83680507 -94.8527832 118.04956055 C-100.57885798 122.94934285 -105.91915238 128.20392103 -111.2331543 133.5402832 C-112.7474258 135.05991668 -114.2669743 136.57412517 -115.78710938 138.08789062 C-120.58673289 142.88472187 -125.25048587 147.74310238 -129.66918945 152.89770508 C-137.08309891 161.3320851 -147.44545316 171.57547732 -159.05078125 172.96875 C-171.2486722 173.52131584 -180.31303384 169.42651451 -189.25 161.3125 C-190.03246094 160.5596875 -190.81492187 159.806875 -191.62109375 159.03125 C-196.48279192 154.47294547 -201.79331106 150.52703018 -207.1875 146.625 C-207.85007812 146.12355469 -208.51265625 145.62210938 -209.1953125 145.10546875 C-216.38436641 140.5438045 -227.30133622 141.60428099 -235.34765625 143.28515625 C-248.42177805 147.63065572 -258.19273591 155.52782259 -264.5 167.6875 C-268.42604535 176.07353287 -270.15772189 183.33674241 -269.1875 192.625 C-267.34960186 197.43854276 -264.69451604 199.12682644 -260.25 201.375 C-248.76715057 205.97701445 -236.89920368 205.81716791 -224.73455811 205.85925293 C-189.29486241 206.07835723 -189.29486241 206.07835723 -178.1640625 215.06640625 C-176.1875 217.625 -176.1875 217.625 -175.8125 219.79296875 C-176.1771407 221.75671087 -176.68075719 223.69304305 -177.1875 225.625 C-180.99658327 228.16438885 -183.78002061 228.21078531 -188.1875 227.625 C-190.24095648 226.98843723 -192.28576718 226.32371422 -194.32421875 225.640625 C-203.10517771 223.07239863 -211.59468638 223.02215508 -220.6875 223 C-263.04701036 222.70756886 -263.04701036 222.70756886 -278.03125 208.9296875 C-283.87978769 202.53643307 -285.75551102 196.18277358 -285.6875 187.6875 C-285.68250488 186.86064697 -285.67750977 186.03379395 -285.67236328 185.18188477 C-285.19446487 167.97589394 -277.46301784 153.47320551 -265.1875 141.625 C-252.36435551 130.50369259 -237.06501167 125.04285923 -220.171875 125.37109375 C-204.72325535 126.68543966 -194.17364011 135.03874438 -183.1875 145.25 C-176.38269262 151.41485684 -169.66350503 156.625 -160.1875 156.625 C-159.5275 155.965 -158.8675 155.305 -158.1875 154.625 C-159.198125 153.84125 -160.20875 153.0575 -161.25 152.25 C-173.21431973 141.93259068 -178.1722599 126.77149886 -179.36035156 111.38671875 C-179.47572786 109.11021833 -179.53570059 106.84169058 -179.5625 104.5625 C-179.57635742 103.8605249 -179.59021484 103.1585498 -179.60449219 102.43530273 C-179.54810691 96.25740568 -177.79684124 92.35209792 -173.625 87.875 C-167.57263237 83.3613699 -161.09615669 83.31089075 -153.86987305 84.26269531 C-135.0351027 87.22013888 -121.50495043 93.82392196 -109.1875 108.625 C-108.1975 106.645 -108.1975 106.645 -107.1875 104.625 C-107.68378906 104.13773437 -108.18007812 103.65046875 -108.69140625 103.1484375 C-121.51532654 89.76483947 -124.73837245 75.24269741 -124.3671875 57.26953125 C-124.08373374 48.64168877 -123.72505519 40.97132016 -117.8828125 34.18359375 C-113.63064204 30.27434027 -108.68843836 28.93906888 -102.96484375 29.14453125 C-86.95560967 31.9140612 -69.87825776 41.11481984 -60.26953125 54.24609375 C-57.43692146 58.84121629 -55.15280618 63.60255088 -53.1875 68.625 C-52.57261719 68.4084375 -51.95773438 68.191875 -51.32421875 67.96875 C-50.51597656 67.6903125 -49.70773438 67.411875 -48.875 67.125 C-48.07449219 66.8465625 -47.27398437 66.568125 -46.44921875 66.28125 C-44.1875 65.625 -44.1875 65.625 -41.1875 65.625 C-41.4040625 64.40876953 -41.4040625 64.40876953 -41.625 63.16796875 C-44.7464382 44.54772283 -42.25769965 29.35035473 -31.09375 13.6875 C-29.17569786 11.28277791 -27.2030384 8.94806385 -25.1875 6.625 C-24.50042969 5.74585937 -23.81335938 4.86671875 -23.10546875 3.9609375 C-17.54642368 -2.80954916 -7.72072615 -3.33050932 0 0 Z " fill="#010100" transform="translate(285.1875,86.375)"/>
<path d="M0 0 C3.80091921 1.19658568 4.5027479 1.65588745 6.375 5.0625 C6.67473041 7.62173655 6.83239461 10.00134197 6.875 12.5625 C7.42183091 25.50465354 10.18276625 39.65092753 20 48.9375 C24.24399514 52.30797381 29.02293008 54.55748683 33.93359375 56.80078125 C36.375 58.0625 36.375 58.0625 37.375 60.0625 C37.49268649 61.79300151 37.55389069 63.52751617 37.5859375 65.26171875 C37.61429688 66.30650391 37.64265625 67.35128906 37.671875 68.42773438 C37.72349527 70.62288636 37.76789958 72.81822123 37.8046875 75.01367188 C38.00400869 81.78643994 38.23961555 87.50427745 42.91015625 92.8046875 C47.83373953 96.45645004 50.14746238 97.56472078 56.375 97.0625 C60.20249382 96.00762274 63.33914923 94.5823155 65.62231445 91.23242188 C68.53430316 84.94786383 68.59990082 79.82849381 68.375 73 C68.42729265 61.31819505 72.09598608 55.29688327 79.79589844 46.87353516 C82.31563647 43.98370573 84.39231313 40.82106802 86.5 37.625 C90.15175277 32.17412362 90.15175277 32.17412362 92.375 31.0625 C99.20762351 30.23101672 104.07081023 32.86004581 110.125 35.8125 C121.92346674 41.46524729 133.30207747 45.49646805 146.09570312 48.21679688 C146.98064453 48.41466797 147.86558594 48.61253906 148.77734375 48.81640625 C149.56616943 48.98470947 150.35499512 49.1530127 151.16772461 49.32641602 C153.74370917 50.18545743 155.37830988 51.22563297 157.375 53.0625 C158.57323746 57.10655144 158.80093997 59.15253735 157 63 C153.21393988 65.97476152 150.04720686 65.4260263 145.375 65.0625 C142.2160041 64.58156312 139.15447681 63.86382383 136.0625 63.0625 C135.20946289 62.84609863 134.35642578 62.62969727 133.47753906 62.40673828 C124.5414425 60.02476011 116.08807778 56.5848462 107.58789062 52.97949219 C104.2161976 51.58230783 100.80039876 50.32160776 97.375 49.0625 C97.14941406 49.60003906 96.92382812 50.13757813 96.69140625 50.69140625 C95.375 53.0625 95.375 53.0625 93.02734375 55.77734375 C85.35696343 64.67931022 84.510668 71.64652601 84.484375 83.1796875 C84.43715164 92.02732047 81.46381244 98.94921518 75.375 105.33984375 C67.52710531 112.09945616 60.09995253 113.43434535 49.98828125 113.33984375 C41.73667203 112.70647699 34.90538904 109.19953886 29.375 103.0625 C24.12155752 96.20228655 22.2076187 89.6484516 22.40258789 81.04467773 C22.67320729 73.04214321 22.67320729 73.04214321 18.9375 66.33984375 C16.14089705 64.6247396 13.40219289 63.31115947 10.375 62.0625 C9.715 61.4025 9.055 60.7425 8.375 60.0625 C6.48712498 59.74976117 6.48712498 59.74976117 4.30014038 59.7840271 C3.44756149 59.77286362 2.5949826 59.76170013 1.71656799 59.75019836 C0.77933395 59.74803818 -0.15790009 59.74587799 -1.12353516 59.74365234 C-2.10893784 59.73360672 -3.09434052 59.7235611 -4.10960388 59.71321106 C-7.37775063 59.68223645 -10.64581495 59.66530431 -13.9140625 59.6484375 C-16.1756563 59.62973734 -18.43724303 59.61016481 -20.69882202 59.5897522 C-26.65986987 59.53830335 -32.62094038 59.49874599 -38.58209229 59.46160889 C-44.66155662 59.42164902 -50.74092569 59.37052021 -56.8203125 59.3203125 C-68.75514154 59.22340228 -80.69002421 59.13904597 -92.625 59.0625 C-92.5935791 60.40042603 -92.5935791 60.40042603 -92.56152344 61.76538086 C-92.49283914 65.11460968 -92.44295673 68.46307668 -92.40527344 71.81274414 C-92.38531249 73.25492252 -92.35813337 74.6970216 -92.32324219 76.13891602 C-92.0427075 88.04101272 -93.48355293 96.38614526 -101.83203125 105.33984375 C-109.29242269 112.50767082 -116.86797354 113.52592532 -126.85546875 113.37890625 C-134.70895358 112.71970182 -141.14961873 109.78676223 -146.625 104.0625 C-153.49896168 94.49513506 -154.90946236 86.00890519 -154.8984375 74.4765625 C-154.91872494 72.22395335 -154.9395757 69.97134922 -154.9609375 67.71875 C-154.98350943 64.20145405 -155.00000523 60.68435722 -155.00585938 57.16699219 C-155.01543093 53.74899166 -155.04925834 50.33186513 -155.0859375 46.9140625 C-155.08089203 45.87520905 -155.07584656 44.83635559 -155.07064819 43.76602173 C-155.20001306 34.06621059 -157.88347826 26.38719391 -164.25 19.0625 C-165.02601563 18.155 -165.80203125 17.2475 -166.6015625 16.3125 C-167.90602159 14.86198179 -169.24557683 13.44192317 -170.625 12.0625 C-171.05334085 8.20743238 -171.18397202 5.93449635 -169.0625 2.625 C-165.57974082 0.39246206 -163.69978906 0.37185779 -159.625 1.0625 C-149.87538815 6.21876123 -142.74075306 19.99194099 -139.625 30.0625 C-138.71430136 33.16892159 -138.49071268 35.96041002 -138.46728516 39.19482422 C-138.45702301 40.21623505 -138.44676086 41.23764587 -138.43618774 42.29000854 C-138.42888641 43.3879776 -138.42158508 44.48594666 -138.4140625 45.6171875 C-138.38599753 47.94662165 -138.35733309 50.27604865 -138.328125 52.60546875 C-138.2868494 56.27457506 -138.24995662 59.94354716 -138.22363281 63.61279297 C-138.19601316 67.15620431 -138.15014564 70.69900985 -138.1015625 74.2421875 C-138.09830963 75.33610809 -138.09505676 76.43002869 -138.09170532 77.55709839 C-138.0022319 83.10765973 -137.8416 87.3161124 -134.625 92.0625 C-131.27966474 95.08146109 -129.01284476 96.92371552 -124.5 97.375 C-118.94871289 96.92731556 -114.53327823 95.09389296 -110.6875 91 C-108.28832587 86.62503542 -108.4743476 82.44430396 -108.44921875 77.59765625 C-108.42602621 75.89386778 -108.4019091 74.19009168 -108.37695312 72.48632812 C-108.3418033 69.80240517 -108.31246975 67.11893989 -108.29907227 64.43481445 C-108.28360477 61.8427008 -108.24341321 59.25191841 -108.19921875 56.66015625 C-108.20112717 55.85900894 -108.20303558 55.05786163 -108.20500183 54.23243713 C-108.13388863 50.99477779 -107.97379937 48.60457351 -106.19972229 45.84745789 C-102.2575579 43.11450395 -98.58791848 43.53590089 -93.89941406 43.60839844 C-92.91371933 43.60781433 -91.9280246 43.60723022 -90.91246033 43.60662842 C-87.6548235 43.60941485 -84.39810196 43.6405341 -81.140625 43.671875 C-78.88190206 43.67933538 -76.62317264 43.68502927 -74.36444092 43.68902588 C-68.41963835 43.70429807 -62.47522672 43.74359403 -56.53057861 43.7878418 C-50.46444996 43.82876003 -44.39825813 43.84702956 -38.33203125 43.8671875 C-26.42951574 43.91008634 -14.52729038 43.97835723 -2.625 44.0625 C-2.97433594 42.928125 -3.32367188 41.79375 -3.68359375 40.625 C-4.14356792 39.10426909 -4.60318423 37.5834299 -5.0625 36.0625 C-5.40764648 34.94681641 -5.40764648 34.94681641 -5.75976562 33.80859375 C-8.44916057 24.84394392 -11.52441773 11.87548156 -7.75390625 3.015625 C-5.38880203 0.25504434 -3.5501928 0.06121022 0 0 Z " fill="#000100" transform="translate(289.625,313.9375)"/>
<path d="M0 0 C5.46587827 4.27318997 10.64635806 8.79825439 15.6875 13.5625 C16.47511719 14.28566406 17.26273437 15.00882813 18.07421875 15.75390625 C37.96090997 34.67988774 51.92349207 59.84457447 64 84.21484375 C64.38776108 84.99620193 64.77552216 85.77756012 65.17503357 86.58259583 C67.13178872 90.53005483 69.07716891 94.48250055 71.00415039 98.44458008 C83.10480282 123.14277163 98.71002463 146.35308623 125.72192383 155.84472656 C134.59934988 158.80423613 142.77031428 159.75930753 152.0625 160.125 C153.08472656 160.16818359 154.10695313 160.21136719 155.16015625 160.25585938 C157.66915288 160.36137792 160.17823943 160.46349213 162.6875 160.5625 C161.40150184 163.43126512 160.2894092 165.73449749 157.6875 167.5625 C154.75512695 167.79882812 154.75512695 167.79882812 151.17578125 167.59375 C149.86802734 167.5201123 148.56027344 167.44647461 147.21289062 167.37060547 C145.80841861 167.27032712 144.40412098 167.16757933 143 167.0625 C142.29431885 167.01305237 141.5886377 166.96360474 140.86157227 166.91265869 C119.84003323 165.3969935 101.51867756 158.9427022 85.6875 144.5625 C84.80707031 143.77488281 83.92664063 142.98726562 83.01953125 142.17578125 C68.78885744 128.74796633 60.40375956 111.82982467 51.6875 94.5625 C39.69596709 70.93745803 26.34207345 48.18666607 7.8671875 29.015625 C5.6875 26.5625 5.6875 26.5625 4.6328125 24.359375 C3.38783232 21.99288376 2.07858436 21.69783502 -0.3125 20.5625 C-1.92634042 19.09537235 -3.50583548 17.59015835 -5.0625 16.0625 C-19.22162091 2.98090899 -36.85754213 -5.40087401 -55.3125 -10.4375 C-56.22386719 -10.68628906 -57.13523437 -10.93507812 -58.07421875 -11.19140625 C-70.5233199 -13.98610243 -84.74482283 -13.05169707 -97.3125 -11.4375 C-68.25571104 -30.80869264 -25.89287072 -18.97265335 0 0 Z " fill="#80D160" transform="translate(334.3125,182.4375)"/>
<path d="M0 0 C2.46094561 2.46094561 1.99836106 8.44024306 2.40234375 11.77734375 C2.69968874 15.07723155 2.69968874 15.07723155 5 17 C6.64991582 17.70710678 8.31562256 18.37943989 10 19 C9.85816304 20.75032844 9.71136571 22.50025534 9.5625 24.25 C9.48128906 25.22453125 9.40007812 26.1990625 9.31640625 27.203125 C9.04925416 29.56461753 8.64628032 31.71901065 8 34 C6.865625 33.938125 5.73125 33.87625 4.5625 33.8125 C1.17794808 34.19656263 0.08595296 34.91347782 -2.359375 37.375 C-3.88522801 39.30023736 -5.37539582 41.25442682 -6.82421875 43.23828125 C-8.98758963 45.98424752 -11.19609542 47.93267281 -14 50 C-14.53367187 49.50371094 -15.06734375 49.00742188 -15.6171875 48.49609375 C-21.11286412 43.48532977 -26.82077797 39.12993689 -33 35 C-33.64839844 34.56300781 -34.29679687 34.12601563 -34.96484375 33.67578125 C-36.30526534 32.7769103 -37.65171369 31.88703047 -39 31 C-36.26232029 20.84176739 -31.86015664 13.43696521 -22.921875 7.640625 C-8.09818837 -0.68283541 -8.09818837 -0.68283541 0 0 Z " fill="#FBE158" transform="translate(370,132)"/>
<path d="M0 0 C11.82647088 0.6822964 23.6425177 6.29998094 31.8125 14.91015625 C35.35678215 19.36709105 38.42606955 24.49667079 40 30 C38.6543369 34.03698929 36.03681031 35.09884765 32.5625 37.1875 C26.33618269 41.04436211 20.59939115 45.26503099 15 50 C11.38004088 48.51323107 9.44896822 46.52294515 7 43.5 C6.34 42.7059375 5.68 41.911875 5 41.09375 C-0.50984294 32.57071169 -1.57835682 25.10007196 -1.3125 15.0625 C-1.30283203 13.94037109 -1.29316406 12.81824219 -1.28320312 11.66210938 C-1.17061697 3.51185092 -1.17061697 3.51185092 0 0 Z " fill="#FCE258" transform="translate(178,132)"/>
<path d="M0 0 C0.98362127 11.01655824 -2.78247086 23.29165733 -9.40625 32.1796875 C-14.00437982 37.43147303 -19.71821295 41.91373071 -26 45 C-26.99 45 -27.98 45 -29 45 C-30.16333008 43.58227539 -30.16333008 43.58227539 -31.26953125 41.59765625 C-31.68106445 40.87610352 -32.09259766 40.15455078 -32.51660156 39.41113281 C-33.15807129 38.24855957 -33.15807129 38.24855957 -33.8125 37.0625 C-34.6966498 35.49464229 -35.58335219 33.92822117 -36.47265625 32.36328125 C-36.9020752 31.60740723 -37.33149414 30.8515332 -37.77392578 30.07275391 C-39.69299961 26.82844152 -41.90872857 23.82151414 -44.234375 20.859375 C-45 19 -45 19 -44.328125 16.484375 C-39.9810256 8.352742 -32.34248492 4.32840747 -23.95703125 1.25 C-16.26107426 -0.89355475 -7.91168909 -0.16350219 0 0 Z " fill="#FBE158" transform="translate(430,196)"/>
<path d="M0 0 C7.63813084 2.92708415 12.77242204 13.00511378 16 20.0625 C17.79485836 24.30659217 19.1502775 27.92457685 19.1875 32.5625 C19.20167969 33.34753906 19.21585937 34.13257813 19.23046875 34.94140625 C18.89866566 39.34482691 17.86603 43.66985002 17 48 C6.11 48 -4.78 48 -16 48 C-18.5629887 30.05907907 -15.4265789 19.34087596 -5 5 C-3.39498169 3.24643093 -1.73417128 1.62999844 0 0 Z " fill="#FBE258" transform="translate(275,100)"/>
<path d="M0 0 C12.79330838 0.09600982 26.52140906 3.24941349 36.20703125 11.9921875 C39.43243989 15.4737895 41.76885455 18.10395923 42 23 C40.09399414 25.5871582 40.09399414 25.5871582 37.28515625 28.30078125 C36.79542831 28.7820195 36.30570038 29.26325775 35.8011322 29.75907898 C34.23510844 31.29153941 32.64952901 32.8018328 31.0625 34.3125 C29.99668968 35.34821457 28.93221858 36.38530919 27.86914062 37.42382812 C25.2614381 39.96541045 22.63578458 42.48751588 20 45 C13.17207384 42.41744935 8.1582179 37.66172377 4.6875 31.1875 C0.43477216 21.47773201 -0.94500125 11.53226122 -1 1 C-0.67 0.67 -0.34 0.34 0 0 Z " fill="#FCE258" transform="translate(122,186)"/>
<path d="M0 0 C0.88365234 0.00451172 1.76730469 0.00902344 2.67773438 0.01367188 C4.84768559 0.02540134 7.01760172 0.04333505 9.1875 0.0625 C7.80923875 12.63060505 4.60891475 23.78378336 -4.625 32.8125 C-13.15113965 38.83095152 -13.15113965 38.83095152 -16.8125 40.0625 C-24.23047998 37.82867648 -28.92245662 27.54389426 -32.84375 21.421875 C-34.07788518 18.41615868 -33.91983783 17.10290603 -32.8125 14.0625 C-24.12818282 2.56741051 -13.69485214 -0.13276143 0 0 Z " fill="#FCE258" transform="translate(457.8125,266.9375)"/>
<path d="M0 0 C5.73456677 3.67221119 10.79185454 8.27673305 15.88671875 12.7734375 C26.60467987 22.18272329 35.87830021 28.21040375 50.3125 28.75 C50.3125 29.08 50.3125 29.41 50.3125 29.75 C49.11625 29.8325 47.92 29.915 46.6875 30 C42.39519777 30.51659567 39.79079596 32.16150068 36.3125 34.75 C29.51113669 37.0171211 23.32226264 35.98874784 16.84765625 33.13671875 C10.24296499 29.52398316 4.86411218 24.26904777 -0.625 19.1875 C-12.26850529 8.60582381 -22.19000146 5.56678911 -37.6875 4.75 C-27.71027926 -3.21807789 -11.67688023 -5.82981613 0 0 Z " fill="#80D05F" transform="translate(75.6875,230.25)"/>
<path d="M0 0 C4.47946349 2.28199084 6.81718831 4.50856614 9 9 C9.3984375 12.33984375 9.3984375 12.33984375 9.375 15.9375 C9.38273437 17.12214844 9.39046875 18.30679687 9.3984375 19.52734375 C8.83900514 24.40318072 7.13344097 27.69482555 3.9375 31.375 C-0.3570182 33.75069092 -4.20257225 33.90099961 -9 33 C-13.4554499 29.87170539 -15.39682261 26.14704319 -17 21 C-17.69268963 15.02199364 -17.5378361 10.07089841 -14 5 C-9.64857867 0.34499113 -6.19271858 -1.3349573 0 0 Z " fill="#020301" transform="translate(61,241)"/>
<path d="M0 0 C3.94728837 3.53958723 6.56257646 7.68537815 9.375 12.125 C9.85815674 12.87966553 10.34131348 13.63433105 10.83911133 14.41186523 C14.32712987 19.88082059 17.73564435 25.39412342 21 31 C19.23462904 32.17491582 17.46250287 33.33968684 15.6875 34.5 C14.20830078 35.47453125 14.20830078 35.47453125 12.69921875 36.46875 C10 38 10 38 7 38 C5.83666992 36.58227539 5.83666992 36.58227539 4.73046875 34.59765625 C4.31893555 33.87610352 3.90740234 33.15455078 3.48339844 32.41113281 C3.05575195 31.63608398 2.62810547 30.86103516 2.1875 30.0625 C1.3033502 28.49464229 0.41664781 26.92822117 -0.47265625 25.36328125 C-0.9020752 24.60740723 -1.33149414 23.8515332 -1.77392578 23.07275391 C-3.69299961 19.82844152 -5.90872857 16.82151414 -8.234375 13.859375 C-9 12 -9 12 -8.3671875 9.50390625 C-6.95352362 6.91488183 -5.51256695 5.20631323 -3.375 3.1875 C-2.74335938 2.58292969 -2.11171875 1.97835937 -1.4609375 1.35546875 C-0.97882813 0.90816406 -0.49671875 0.46085938 0 0 Z " fill="#FBD61D" transform="translate(394,203)"/>
<path d="M0 0 C8.73479584 3.25995059 16.06998644 8.83929257 23.1875 14.75 C23.76435547 15.22171631 24.34121094 15.69343262 24.93554688 16.17944336 C26.35181111 17.38425745 27.68415762 18.68624957 29 20 C29 23.72038015 28.09675609 24.44902879 25.6875 27.1875 C25.07261719 27.90292969 24.45773437 28.61835938 23.82421875 29.35546875 C22 31 22 31 19 31 C17.30859375 29.71484375 17.30859375 29.71484375 15.4375 27.9375 C10.91915242 23.82688544 6.06029447 20.40726494 1 17 C0.3503125 16.56171875 -0.299375 16.1234375 -0.96875 15.671875 C-2.30815385 14.77472714 -3.65322139 13.88603856 -5 13 C-4.54554036 11.58208592 -4.08625056 10.16571954 -3.625 8.75 C-3.24214844 7.56664062 -3.24214844 7.56664062 -2.8515625 6.359375 C-2.04826333 4.13372042 -1.10288338 2.09068328 0 0 Z " fill="#FBD51D" transform="translate(336,150)"/>
<path d="M0 0 C1.02287109 -0.00386719 2.04574219 -0.00773438 3.09960938 -0.01171875 C4.08380859 -0.01042969 5.06800781 -0.00914062 6.08203125 -0.0078125 C6.96737549 -0.00668457 7.85271973 -0.00555664 8.76489258 -0.00439453 C11.1875 0.125 11.1875 0.125 15.1875 1.125 C14.5275 5.415 13.8675 9.705 13.1875 14.125 C2.2975 14.125 -8.5925 14.125 -19.8125 14.125 C-20.1425 9.835 -20.4725 5.545 -20.8125 1.125 C-13.84072864 0.21280562 -7.02711101 -0.02707943 0 0 Z " fill="#FDD71D" transform="translate(278.8125,133.875)"/>
<path d="M0 0 C1.6989721 2.54845815 3.09889059 5.02920832 4.49609375 7.74609375 C4.97240234 8.66583984 5.44871094 9.58558594 5.93945312 10.53320312 C6.93573902 12.4647248 7.93053854 14.39701389 8.92382812 16.33007812 C9.40142578 17.25111328 9.87902344 18.17214844 10.37109375 19.12109375 C10.80349365 19.9608374 11.23589355 20.80058105 11.68139648 21.66577148 C12.95368247 24.04284561 12.95368247 24.04284561 14.66430664 26.17993164 C16 28 16 28 16 30 C14.59546357 30.89434157 13.17578131 31.76493192 11.75 32.625 C10.56664062 33.35589844 10.56664062 33.35589844 9.359375 34.1015625 C7 35 7 35 4.9140625 34.3984375 C-1.30118094 29.85750453 -7.10002618 21.06283946 -10 14 C-9.91846032 10.52640961 -9.18268135 9.21721468 -6.93359375 6.54296875 C-6.10988281 5.76566406 -5.28617187 4.98835938 -4.4375 4.1875 C-3.61121094 3.39730469 -2.78492188 2.60710937 -1.93359375 1.79296875 C-1.29550781 1.20128906 -0.65742188 0.60960937 0 0 Z " fill="#FBD61D" transform="translate(434,272)"/>
<path d="M0 0 C0.07447267 4.58980814 0.12875322 9.17926014 0.16479492 13.76953125 C0.17982869 15.32916394 0.20026135 16.88875472 0.22631836 18.44824219 C0.26294211 20.69737116 0.27978021 22.94593847 0.29296875 25.1953125 C0.30845261 25.8861795 0.32393646 26.57704651 0.33988953 27.28884888 C0.34148584 31.94009052 -0.56410659 35.04898017 -3 39 C-5.68673501 41.48522988 -7.52547139 42.8418238 -11 44 C-11.09965569 39.73167019 -11.17183391 35.46397531 -11.21972656 31.19482422 C-11.23971295 29.74581083 -11.26691197 28.29687675 -11.30175781 26.84814453 C-11.65449884 11.79440259 -11.65449884 11.79440259 -7 5 C-2.06281017 0 -2.06281017 0 0 0 Z " fill="#81D161" transform="translate(182,367)"/>
<path d="M0 0 C2.97102204 3.37616141 3.84698819 6.70377775 5 11 C4.03320312 11.6290625 3.06640625 12.258125 2.0703125 12.90625 C-5.60341417 17.93784596 -12.97396161 23.0815959 -20 29 C-23.74020498 27.31847927 -25.56134348 25.30960527 -28 22 C-23.87824202 17.63338511 -19.34891924 14.05122573 -14.5625 10.4375 C-13.45551758 9.59155273 -13.45551758 9.59155273 -12.32617188 8.72851562 C-8.30316851 5.67103307 -4.24024464 2.74843115 0 0 Z " fill="#F9D41D" transform="translate(213,153)"/>
<path d="M0 0 C4.67083558 4.19177552 4.67083558 4.19177552 5.95483398 7.34448242 C6 10 6 10 4.09399414 12.5871582 C3.16707764 13.48265381 2.24016113 14.37814941 1.28515625 15.30078125 C0.79542831 15.7820195 0.30570038 16.26325775 -0.1988678 16.75907898 C-1.76489156 18.29153941 -3.35047099 19.8018328 -4.9375 21.3125 C-6.00331032 22.34821457 -7.06778142 23.38530919 -8.13085938 24.42382812 C-10.7385619 26.96541045 -13.36421542 29.48751588 -16 32 C-19.35594194 30.7367158 -21.63290296 29.74084921 -24 27 C-22.68516427 24.08165783 -21.28366724 22.05079071 -18.98828125 19.828125 C-18.39813232 19.24957764 -17.8079834 18.67103027 -17.19995117 18.07495117 C-16.57709229 17.47271729 -15.9542334 16.8704834 -15.3125 16.25 C-10.31175032 11.34115944 -5.50592393 6.37304331 -1 1 C-0.67 0.67 -0.34 0.34 0 0 Z " fill="#FCD61D" transform="translate(158,199)"/>
<path d="M0 0 C0.33 0 0.66 0 1 0 C1.117791 3.31219232 1.18777155 6.62383492 1.25 9.9375 C1.30027344 11.32678711 1.30027344 11.32678711 1.3515625 12.74414062 C1.44132188 19.13949641 0.80954415 24.68003651 -3 30 C-5.28355858 31.8099067 -7.30409661 32.80758119 -10 34 C-10.57682348 15.19982736 -10.57682348 15.19982736 -7 9 C-5.09812108 7.17736603 -3.07956792 5.62748794 -1 4 C-0.05563651 1.83468832 -0.05563651 1.83468832 0 0 Z " fill="#7BC85C" transform="translate(358,377)"/>
</svg>
