<?xml version="1.0" encoding="UTF-8"?>
<svg version="1.1" xmlns="http://www.w3.org/2000/svg" width="512" height="512">
<path d="M0 0 C9.78793134 3.98635749 17.65059531 18.77510104 21.7734375 28.0625 C25.50089423 39.86316869 24.09471937 54.31803167 20.1484375 65.875 C21.29441406 66.27332031 22.44039063 66.67164063 23.62109375 67.08203125 C25.15108648 67.61705938 26.68103188 68.15222285 28.2109375 68.6875 C28.96310547 68.94853516 29.71527344 69.20957031 30.49023438 69.47851562 C35.13136433 71.10592483 39.65021088 72.88574441 44.1484375 74.875 C44.48875 72.956875 44.48875 72.956875 44.8359375 71 C47.62934037 58.77407923 54.92884144 49.12915358 65.2734375 42.125 C74.12732142 36.89711062 85.59247314 30.51111609 96.1484375 32.875 C99.5484974 34.71669911 100.76249596 35.93671459 102.2265625 39.49609375 C106.11319676 53.74159642 105.29929382 71.8206819 98.28125 84.81640625 C95.11205194 89.36124522 91.34708454 93.29694841 87.37963867 97.15649414 C85.47248103 99.00238648 85.47248103 99.00238648 83.1484375 101.875 C83.43013626 105.08501879 84.73545362 106.89338987 86.8359375 109.2578125 C87.36960937 109.86753906 87.90328125 110.47726563 88.453125 111.10546875 C89.01257813 111.73066406 89.57203125 112.35585937 90.1484375 113 C91.25430236 114.25110517 92.35854764 115.50364432 93.4609375 116.7578125 C93.95207031 117.30840332 94.44320313 117.85899414 94.94921875 118.42626953 C96.1484375 119.875 96.1484375 119.875 97.1484375 121.875 C99.17307005 122.52713292 99.17307005 122.52713292 101.1484375 122.875 C101.41269531 122.29492188 101.67695313 121.71484375 101.94921875 121.1171875 C104.05213557 117.18534953 107.11018137 114.10705436 110.1484375 110.875 C110.65117187 110.32199219 111.15390625 109.76898438 111.671875 109.19921875 C119.27398757 101.73216909 130.24275942 99.68724485 140.4609375 98.5 C141.18901611 98.41524414 141.91709473 98.33048828 142.66723633 98.24316406 C149.20257116 97.62476679 155.8877846 97.03821952 161.1484375 101.3125 C164.42176968 105.50645685 164.45116514 108.69093188 164.1484375 113.875 C162.24206665 128.34942672 157.06520533 143.72292231 145.1484375 152.875 C138.74457714 157.41483492 132.17825516 161.36009117 125.1484375 164.875 C132.0784375 178.735 132.0784375 178.735 139.1484375 192.875 C139.8084375 192.875 140.4684375 192.875 141.1484375 192.875 C142.938666 191.01351862 144.64186161 189.13299151 146.3359375 187.1875 C154.53920635 178.08629504 162.35185095 172.66949865 175.00830078 171.64306641 C178.22406649 171.48475025 181.42901643 171.40897997 184.6484375 171.375 C185.6995874 171.35655029 186.7507373 171.33810059 187.83374023 171.3190918 C192.35636967 171.35585522 195.31979597 171.40369088 199.30078125 173.66796875 C202.23651472 177.17471169 202.46430305 180.48325393 202.1484375 184.875 C199.12405527 200.38336002 193.46176466 214.49285316 180.1484375 223.875 C175.26925213 226.76699775 170.21684465 229.33419694 165.1484375 231.875 C181.90247974 244.27839578 196.45529689 248.0861231 217.1953125 248.82226562 C227.43253579 249.37459445 227.43253579 249.37459445 230.4609375 252.18359375 C232.62548934 255.63585351 233.00428525 257.48843087 232.74609375 261.48046875 C230.30766743 271.25011148 220.12871298 277.13439632 212.15625 282.12109375 C210.1928731 283.20390032 208.23507886 284.05354541 206.1484375 284.875 C205.26027344 285.24625 204.37210937 285.6175 203.45703125 286 C174.13502746 296.3616406 142.43028149 284.65882077 115.75756836 272.36425781 C112.10564153 270.53015305 112.10564153 270.53015305 108.1484375 269.875 C107.8390625 270.86113281 107.8390625 270.86113281 107.5234375 271.8671875 C105.62243448 276.02563162 102.93380525 279.39347431 100.1484375 283 C99.06451149 284.41881825 97.9811554 285.83807212 96.8984375 287.2578125 C96.41890625 287.88059082 95.939375 288.50336914 95.4453125 289.14501953 C92.72385263 292.77534043 91.87685683 294.82869794 91.65625 299.3203125 C91.55763672 300.93679688 91.55763672 300.93679688 91.45703125 302.5859375 C91.33591417 304.83819981 91.22119046 307.09081625 91.11328125 309.34375 C90.59981089 317.50114696 89.34934483 324.06301036 84 330.43359375 C77.32823118 336.06363024 72.47075846 338.33638459 63.671875 338.125 C56.86555026 337.45068919 52.03425523 334.64977642 47.1484375 329.875 C42.8042221 324.20338545 41.09538188 319.31364829 40.8671875 312.21484375 C40.82851563 311.17392578 40.78984375 310.13300781 40.75 309.06054688 C40.68219308 306.89202955 40.64582469 304.72230533 40.640625 302.55273438 C40.49115679 299.38046833 40.27124233 296.85031869 39.1484375 293.875 C36.76976911 292.01152956 34.61835287 291.02888418 31.77148438 290.03735352 C29.1484375 288.875 29.1484375 288.875 27.16992188 286.29443359 C22.2099974 282.32280693 16.75637765 283.11445766 10.5859375 283.09765625 C9.1757474 283.0762688 7.76558908 283.05269199 6.35546875 283.02711487 C3.27587492 282.976073 0.1966244 282.94088655 -2.88330078 282.91729736 C-8.03855549 282.87730698 -13.19290574 282.79916892 -18.34765625 282.71826172 C-28.56083745 282.56345418 -38.77425383 282.44924951 -48.98803711 282.34277344 C-53.84361377 282.29143986 -58.69914795 282.23635372 -63.5546875 282.18164062 C-72.98694244 282.07588068 -82.41923514 281.97407622 -91.8515625 281.875 C-91.83061523 282.98423828 -91.80966797 284.09347656 -91.78808594 285.23632812 C-91.71527783 289.38105179 -91.66961555 293.52571976 -91.63183594 297.67089844 C-91.61181291 299.45940684 -91.58458596 301.24785054 -91.54980469 303.03613281 C-91.50087295 305.61800162 -91.47850085 308.1989995 -91.4609375 310.78125 C-91.44029236 311.57116333 -91.41964722 312.36107666 -91.39837646 313.17492676 C-91.39564542 320.04659123 -93.47962266 325.15805073 -98 330.3359375 C-104.65324118 336.05539044 -109.48904729 338.34647715 -118.33203125 338.12109375 C-125.53407053 337.41763875 -130.99638642 334.17379623 -135.8515625 328.875 C-139.66796288 323.53203947 -140.94404085 318.81623052 -141.08520508 312.34716797 C-141.12578789 310.68426224 -141.12578789 310.68426224 -141.16719055 308.98776245 C-141.20624763 307.19557785 -141.20624763 307.19557785 -141.24609375 305.3671875 C-141.31490363 302.82810178 -141.38459315 300.28903977 -141.45507812 297.75 C-141.56217678 293.75426451 -141.66386935 289.75893633 -141.75024414 285.76269531 C-141.8360958 281.90104448 -141.94551943 278.04062496 -142.05859375 274.1796875 C-142.07855911 272.99704315 -142.09852448 271.8143988 -142.11909485 270.59591675 C-142.5018519 258.77600306 -146.11125689 250.68805586 -153.8515625 241.875 C-154.36332031 241.26914062 -154.87507813 240.66328125 -155.40234375 240.0390625 C-167.55440242 226.71099815 -187.27526014 219.06353673 -204.8515625 216.875 C-207.59622867 216.76505678 -210.32152524 216.69178181 -213.06640625 216.6640625 C-214.6569107 216.63595817 -216.24740533 216.60729354 -217.83789062 216.578125 C-220.29890268 216.53727429 -222.75973879 216.50031794 -225.22094727 216.47363281 C-242.44349428 216.27156793 -261.82076371 215.49221116 -275.44921875 203.59765625 C-279.66155132 198.4231753 -280.37510265 193.73136832 -280.2890625 187.3125 C-280.28148926 186.52037109 -280.27391602 185.72824219 -280.26611328 184.91210938 C-279.81897304 168.76283994 -272.30321845 155.89977088 -260.8515625 144.875 C-246.87004461 133.07450707 -231.55444761 130.57018334 -213.8515625 131.875 C-203.4328467 133.88204096 -195.90407351 141.94753233 -188.4140625 148.9375 C-180.2519706 156.3878483 -172.2707681 162.51055727 -160.8515625 162.875 C-155.3213353 162.38703878 -151.30991105 160.08915825 -146.8515625 156.875 C-145.8615625 156.545 -144.8715625 156.215 -143.8515625 155.875 C-143.8515625 154.555 -143.8515625 153.235 -143.8515625 151.875 C-144.5528125 151.64941406 -145.2540625 151.42382812 -145.9765625 151.19140625 C-154.54741039 147.26698269 -162.46523253 138.60451456 -165.8515625 129.875 C-169.03146363 120.84713 -171.02969161 112.40658157 -171.1640625 102.8125 C-171.19306641 102.11833984 -171.22207031 101.42417969 -171.25195312 100.70898438 C-171.29731864 97.03437776 -170.96871377 95.0564033 -168.95703125 91.94140625 C-164.7668351 87.82895029 -160.4898078 88.54568147 -154.84765625 88.59765625 C-142.18184063 89.22026054 -128.30165554 94.29745076 -118.8515625 102.875 C-116.9518059 105.20607533 -115.23949399 107.64614877 -113.5390625 110.125 C-113.08466797 110.7746875 -112.63027344 111.424375 -112.16210938 112.09375 C-111.05202111 113.68292899 -109.95086599 115.27834173 -108.8515625 116.875 C-105.55037456 116.2944679 -103.94022174 115.32631901 -101.6171875 112.93359375 C-101.04355469 112.35029297 -100.46992188 111.76699219 -99.87890625 111.16601562 C-98.99912109 110.24852539 -98.99912109 110.24852539 -98.1015625 109.3125 C-97.49957031 108.69697266 -96.89757812 108.08144531 -96.27734375 107.44726562 C-94.79521869 105.92985187 -93.3224658 104.40329404 -91.8515625 102.875 C-93.17220703 101.58916016 -93.17220703 101.58916016 -94.51953125 100.27734375 C-95.69297916 99.122671 -96.866141 97.96770748 -98.0390625 96.8125 C-98.61720703 96.25111328 -99.19535156 95.68972656 -99.79101562 95.11132812 C-110.99700177 84.03196329 -114.18770262 73.28380361 -114.2890625 57.6875 C-114.2991333 56.67824463 -114.3092041 55.66898926 -114.31958008 54.62915039 C-114.24533581 48.19201474 -113.77174879 41.72159309 -110.8515625 35.875 C-107.19040152 32.64819876 -104.74576422 32.24271829 -99.9609375 32.3984375 C-89.13022964 34.05842036 -79.31287042 39.0508417 -70.8515625 45.875 C-70.28179687 46.28363281 -69.71203125 46.69226563 -69.125 47.11328125 C-59.7569301 54.10330264 -56.50788709 65.30796261 -52.8515625 75.875 C-52.26890625 75.56046875 -51.68625 75.2459375 -51.0859375 74.921875 C-43.57531318 71.00123463 -35.45341332 66.875 -26.8515625 66.875 C-27.068125 66.26398438 -27.2846875 65.65296875 -27.5078125 65.0234375 C-31.3466257 52.40511635 -32.73283508 35.68543726 -26.59765625 23.67578125 C-10.41866813 -2.27575003 -10.41866813 -2.27575003 0 0 Z M-246.6640625 156.75 C-248.90392597 160.75817674 -248.99833732 163.94542615 -248.2890625 168.4375 C-246.30496206 173.18208802 -243.49795282 175.55180484 -238.8515625 177.875 C-232.74471021 178.38390436 -229.72196478 177.9525461 -224.8515625 173.875 C-221.86435703 170.78478744 -221.10310831 168.15127877 -220.8515625 163.875 C-221.54550521 159.48002953 -222.48645389 156.85499434 -225.8515625 154 C-233.59742936 148.51334431 -240.22341238 150.08725849 -246.6640625 156.75 Z " fill="#FEFEFE" transform="translate(279.8515625,87.125)"/>
</svg>
